<svg width="24" height="24" viewBox="0 0 24 24" fill="none" xmlns="http://www.w3.org/2000/svg">
<path d="M17.0002 10.5899L12.7102 14.8299C12.6172 14.9237 12.5066 14.9981 12.3848 15.0488C12.2629 15.0996 12.1322 15.1257 12.0002 15.1257C11.8682 15.1257 11.7375 15.0996 11.6156 15.0488C11.4938 14.9981 11.3832 14.9237 11.2902 14.8299L7.05019 10.5899C6.95646 10.497 6.88207 10.3864 6.8313 10.2645C6.78053 10.1427 6.75439 10.0119 6.75439 9.87993C6.75439 9.74792 6.78053 9.61722 6.8313 9.49536C6.88207 9.3735 6.95646 9.2629 7.05019 9.16993C7.23756 8.98368 7.49101 8.87914 7.75519 8.87914C8.01938 8.87914 8.27283 8.98368 8.46019 9.16993L12.0002 12.7099L15.5402 9.16993C15.7265 8.98519 15.9779 8.88104 16.2402 8.87993C16.3718 8.87917 16.5023 8.9044 16.6241 8.95416C16.7459 9.00393 16.8568 9.07725 16.9502 9.16993C17.0473 9.25955 17.1256 9.36752 17.1807 9.48759C17.2358 9.60767 17.2666 9.73747 17.2713 9.86951C17.2759 10.0015 17.2543 10.1332 17.2078 10.2568C17.1613 10.3805 17.0907 10.4937 17.0002 10.5899Z" fill="#828282"/>
</svg>
