<svg width="160" height="160" viewBox="0 0 160 160" fill="none" xmlns="http://www.w3.org/2000/svg">
<g clip-path="url(#clip0_57_323)">
<path d="M61.1355 86.2696C59.1947 85.3754 56.4663 84.9283 52.9658 84.8877H35.4121V106.694H52.6863C56.2377 106.694 58.9864 106.226 60.9729 105.256C64.5446 103.478 66.3431 100.079 66.3431 95.0439C66.3431 90.7914 64.6106 87.8599 61.1355 86.2696Z" fill="#828282"/>
<path d="M61.359 69.3255C63.5691 67.9792 64.6665 65.5862 64.6665 62.1364C64.6665 58.331 63.2135 55.8059 60.2819 54.5916C57.7619 53.7533 54.5357 53.3164 50.6287 53.3164H35.4121V71.3578H52.7117C56.2631 71.3527 59.1439 70.677 61.359 69.3255Z" fill="#828282"/>
<path d="M114.396 70.8293C110.459 70.8293 107.41 71.9674 105.246 74.1877C103.076 76.4181 101.725 79.436 101.166 83.2566H127.56C127.26 79.1972 125.904 76.1081 123.455 74.0098C121.031 71.8912 118.008 70.8293 114.396 70.8293Z" fill="#828282"/>
<path d="M0 0V160H160V0H0ZM97.7975 42.5048H130.725V50.6846H97.7975V42.5048ZM79.939 109.254C78.3843 111.805 76.4588 113.949 74.1471 115.687C71.5407 117.688 68.4618 119.06 64.9206 119.792C61.3692 120.533 57.5181 120.899 53.3824 120.899H16.5426V39.121H56.0447C65.9926 39.2684 73.0547 42.1542 77.2209 47.8293C79.7256 51.3095 80.9602 55.4706 80.9602 60.3074C80.9602 65.322 79.7053 69.3154 77.1751 72.3485C75.778 74.0607 73.7 75.6052 70.9513 77.0024C75.1124 78.5368 78.2675 80.9196 80.376 84.2322C82.4997 87.5143 83.5615 91.5229 83.5615 96.2022C83.5666 101.059 82.3777 105.413 79.939 109.254ZM143.447 93.3672H100.79C101.029 99.2557 103.056 103.371 106.917 105.734C109.239 107.212 112.059 107.928 115.356 107.928C118.847 107.928 121.661 107.049 123.856 105.251C125.045 104.296 126.087 102.939 126.996 101.232H142.629C142.223 104.712 140.343 108.228 136.954 111.82C131.721 117.516 124.369 120.376 114.929 120.376C107.126 120.376 100.257 117.952 94.2919 113.161C88.3475 108.355 85.3499 100.536 85.3499 89.699C85.3499 79.5427 88.0325 71.7592 93.4129 66.3432C98.8137 60.9272 105.784 58.2243 114.371 58.2243C119.467 58.2243 124.049 59.1337 128.149 60.9526C132.229 62.7918 135.603 65.6776 138.25 69.6304C140.663 73.1208 142.197 77.1497 142.929 81.7579C143.346 84.4151 143.523 88.2967 143.447 93.3672Z" fill="#828282"/>
</g>
<defs>
<clipPath id="clip0_57_323">
<rect width="160" height="160" fill="white"/>
</clipPath>
</defs>
</svg>
