<svg width="20" height="20" viewBox="0 0 20 20" fill="none" xmlns="http://www.w3.org/2000/svg">
<g clip-path="url(#clip0_80_66)">
<path d="M8.07165 9.32947C8.07165 9.32947 9.96409 9.18897 9.96409 6.96918C9.96409 4.74961 8.41569 3.66675 6.45414 3.66675H2.84378H2.73773H0V16.0702H2.73773H2.84378H6.45414C6.45414 16.0702 10.3941 16.1949 10.3941 12.4094C10.3944 12.4094 10.5662 9.32947 8.07165 9.32947ZM2.84378 5.8715H5.98965H6.45435C6.45435 5.8715 7.33179 5.8715 7.33179 7.16187C7.33179 8.45224 6.81552 8.6393 6.23056 8.6393H2.84378V5.8715ZM6.28776 13.8661H2.84378V10.5512H6.45414C6.45414 10.5512 7.76184 10.5345 7.76184 12.2547C7.76184 13.6891 6.80549 13.8517 6.28776 13.8661Z" fill="#828282"/>
<path d="M18.0986 4.39746H12.981V5.92499H18.0986V4.39746Z" fill="#828282"/>
<path d="M15.649 6.82275C10.8792 6.82275 10.8834 11.588 10.8834 11.588C10.8834 11.588 10.5565 16.3297 15.6493 16.3297C15.6493 16.3297 19.8936 16.5722 19.8936 13.031H17.7108C17.7108 13.031 17.7837 14.3652 15.7221 14.3652C15.7221 14.3652 13.5395 14.5111 13.5395 12.2066H19.9663C19.9663 12.2066 20.6694 6.82275 15.649 6.82275ZM17.5893 10.5511H13.5149C13.5149 10.5511 13.7814 8.63921 15.6975 8.63921C17.6137 8.639 17.5893 10.5511 17.5893 10.5511Z" fill="#828282"/>
</g>
<defs>
<clipPath id="clip0_80_66">
<rect width="20" height="20" fill="white"/>
</clipPath>
</defs>
</svg>
