<svg width="160" height="160" viewBox="0 0 160 160" fill="none" xmlns="http://www.w3.org/2000/svg">
<g clip-path="url(#clip0_75_24)">
<path d="M61.7142 41.5239C49.7777 47.1112 41.0158 58.0319 38.2222 71.2382C39.365 71.2382 57.1428 71.4922 77.5872 66.0319C70.2222 52.9525 62.3492 42.2858 61.7142 41.5239Z" fill="#828282"/>
<path d="M81.143 72.6348C59.1748 79.2379 38.0954 78.73 37.3335 78.73C37.3335 79.111 37.3335 79.6189 37.3335 80.1268C37.3335 91.0475 41.524 101.079 48.2541 108.571C48.2541 108.571 59.9367 87.7459 82.9208 80.3808C83.4287 80.2538 84.0636 79.9998 84.5716 79.8729C83.5557 77.4602 82.2859 75.0475 81.143 72.6348Z" fill="#828282"/>
<path d="M80 37.3335C76.5714 37.3335 73.1429 37.7144 69.9683 38.4764C70.6032 39.3652 78.6032 49.9049 85.9683 63.3652C101.968 57.397 108.063 48.1271 108.19 48.0002C100.698 41.397 90.7937 37.3335 80 37.3335Z" fill="#828282"/>
<path d="M95.4922 84.9523C101.079 100.317 103.365 112.762 103.746 115.428C113.27 108.952 120.127 98.6666 122.032 86.8571C121.27 86.4761 109.333 82.6666 95.4922 84.9523Z" fill="#828282"/>
<path d="M119.873 0H0C0 0 0 18.0317 0 40.127V160C0 160 18.0317 160 40 160H160C160 160 160 141.968 160 119.873V0C160 0 141.968 0 119.873 0ZM128.889 90.0318C128.254 93.2064 127.238 96.381 125.968 99.4286C124.698 102.349 123.175 105.27 121.397 107.937C119.619 110.603 117.587 113.016 115.302 115.302C113.016 117.587 110.603 119.619 107.937 121.397C105.27 123.175 102.476 124.698 99.4286 125.968C96.381 127.238 93.2064 128.254 90.0318 128.889C86.7302 129.524 83.4286 129.905 80 129.905C76.5714 129.905 73.2698 129.524 69.9683 128.889C66.7937 128.254 63.619 127.238 60.5714 125.968C57.6508 124.698 54.7302 123.175 52.0635 121.397C49.3968 119.619 46.9841 117.587 44.6984 115.302C42.4127 113.016 40.381 110.603 38.6032 107.937C36.8254 105.27 35.3016 102.476 34.0317 99.4286C32.7619 96.381 31.746 93.2064 31.1111 90.0318C30.4762 86.7302 30.0952 83.3016 30.0952 80C30.0952 76.5714 30.4762 73.2698 31.1111 69.9683C31.746 66.7937 32.7619 63.619 34.0317 60.5714C35.3016 57.6508 36.8254 54.7302 38.6032 52.0635C40.381 49.3968 42.4127 46.9841 44.6984 44.6984C46.9841 42.4127 49.3968 40.381 52.0635 38.6032C54.7302 36.8254 57.5238 35.3016 60.5714 34.0317C63.619 32.7619 66.7937 31.746 69.9683 31.1111C73.2698 30.4762 76.6984 30.0952 80 30.0952C83.4286 30.0952 86.7302 30.4762 90.0318 31.1111C93.2064 31.746 96.381 32.7619 99.4286 34.0317C102.349 35.3016 105.27 36.8254 107.937 38.6032C110.603 40.381 113.016 42.4127 115.302 44.6984C117.587 46.9841 119.619 49.3968 121.397 52.0635C123.175 54.7302 124.698 57.5238 125.968 60.5714C127.238 63.619 128.254 66.7937 128.889 69.9683C129.524 73.2698 129.905 76.5714 129.905 80C129.905 83.4286 129.524 86.7302 128.889 90.0318Z" fill="#828282"/>
<path d="M87.4921 86.8569C87.4921 86.8569 87.3651 86.9839 87.2381 86.9839C62.0953 95.7458 53.8413 113.397 53.8413 113.651C61.0794 119.238 70.0953 122.666 80 122.666C85.8413 122.666 91.5556 121.397 96.635 119.238C96 115.555 93.5873 102.476 87.4921 86.8569Z" fill="#828282"/>
<path d="M112.889 52.9521C112.889 53.0791 106.032 62.9839 89.1431 69.841C90.1589 71.8728 91.0478 73.9045 91.9367 76.0633C92.1907 76.8252 92.5716 77.5871 92.8256 78.222C107.429 76.3172 121.905 79.4918 122.54 79.6188C122.413 69.4601 118.857 60.1902 112.889 52.9521Z" fill="#828282"/>
</g>
<defs>
<clipPath id="clip0_75_24">
<rect width="160" height="160" fill="white"/>
</clipPath>
</defs>
</svg>
