<svg width="160" height="160" viewBox="0 0 160 160" fill="none" xmlns="http://www.w3.org/2000/svg">
<g clip-path="url(#clip0_75_63)">
<path d="M79.9982 64.0906C71.2281 64.0906 64.0871 71.2281 64.0871 79.9982C64.0871 88.7719 71.2281 95.9129 79.9982 95.9129C88.7719 95.9129 95.9094 88.7719 95.9094 79.9982C95.9094 71.2281 88.7719 64.0906 79.9982 64.0906ZM79.9982 64.0906C71.2281 64.0906 64.0871 71.2281 64.0871 79.9982C64.0871 88.7719 71.2281 95.9129 79.9982 95.9129C88.7719 95.9129 95.9094 88.7719 95.9094 79.9982C95.9094 71.2281 88.7719 64.0906 79.9982 64.0906ZM106.505 38.1489H53.4948C45.0337 38.1489 38.1489 45.0337 38.1489 53.4948V106.505C38.1489 114.966 45.0337 121.851 53.4948 121.851H106.505C114.966 121.851 121.851 114.966 121.851 106.505V53.4948C121.851 45.0337 114.966 38.1489 106.505 38.1489ZM79.9982 107.555C64.8068 107.555 52.4451 95.1932 52.4451 79.9982C52.4451 64.8068 64.8068 52.4451 79.9982 52.4451C95.1932 52.4451 107.555 64.8068 107.555 79.9982C107.555 95.1932 95.1932 107.555 79.9982 107.555ZM108.44 58.1432C104.845 58.1432 101.92 55.2187 101.92 51.6235C101.92 48.0284 104.845 45.1039 108.44 45.1039C112.035 45.1039 114.959 48.0284 114.959 51.6235C114.959 55.2187 112.035 58.1432 108.44 58.1432ZM79.9982 64.0906C71.2281 64.0906 64.0871 71.2281 64.0871 79.9982C64.0871 88.7719 71.2281 95.9129 79.9982 95.9129C88.7719 95.9129 95.9094 88.7719 95.9094 79.9982C95.9094 71.2281 88.7719 64.0906 79.9982 64.0906ZM106.505 38.1489H53.4948C45.0337 38.1489 38.1489 45.0337 38.1489 53.4948V106.505C38.1489 114.966 45.0337 121.851 53.4948 121.851H106.505C114.966 121.851 121.851 114.966 121.851 106.505V53.4948C121.851 45.0337 114.966 38.1489 106.505 38.1489ZM79.9982 107.555C64.8068 107.555 52.4451 95.1932 52.4451 79.9982C52.4451 64.8068 64.8068 52.4451 79.9982 52.4451C95.1932 52.4451 107.555 64.8068 107.555 79.9982C107.555 95.1932 95.1932 107.555 79.9982 107.555ZM108.44 58.1432C104.845 58.1432 101.92 55.2187 101.92 51.6235C101.92 48.0284 104.845 45.1039 108.44 45.1039C112.035 45.1039 114.959 48.0284 114.959 51.6235C114.959 55.2187 112.035 58.1432 108.44 58.1432ZM79.9982 64.0906C71.2281 64.0906 64.0871 71.2281 64.0871 79.9982C64.0871 88.7719 71.2281 95.9129 79.9982 95.9129C88.7719 95.9129 95.9094 88.7719 95.9094 79.9982C95.9094 71.2281 88.7719 64.0906 79.9982 64.0906ZM0 0V160H160V0H0ZM133.493 106.505C133.493 121.388 121.388 133.493 106.505 133.493H53.4948C38.6123 133.493 26.5069 121.388 26.5069 106.505V53.4948C26.5069 38.6123 38.6123 26.5069 53.4948 26.5069H106.505C121.388 26.5069 133.493 38.6123 133.493 53.4948V106.505ZM106.505 38.1489H53.4948C45.0337 38.1489 38.1489 45.0337 38.1489 53.4948V106.505C38.1489 114.966 45.0337 121.851 53.4948 121.851H106.505C114.966 121.851 121.851 114.966 121.851 106.505V53.4948C121.851 45.0337 114.966 38.1489 106.505 38.1489ZM79.9982 107.555C64.8068 107.555 52.4451 95.1932 52.4451 79.9982C52.4451 64.8068 64.8068 52.4451 79.9982 52.4451C95.1932 52.4451 107.555 64.8068 107.555 79.9982C107.555 95.1932 95.1932 107.555 79.9982 107.555ZM108.44 58.1432C104.845 58.1432 101.92 55.2187 101.92 51.6235C101.92 48.0284 104.845 45.1039 108.44 45.1039C112.035 45.1039 114.959 48.0284 114.959 51.6235C114.959 55.2187 112.035 58.1432 108.44 58.1432ZM79.9982 64.0906C71.2281 64.0906 64.0871 71.2281 64.0871 79.9982C64.0871 88.7719 71.2281 95.9129 79.9982 95.9129C88.7719 95.9129 95.9094 88.7719 95.9094 79.9982C95.9094 71.2281 88.7719 64.0906 79.9982 64.0906ZM79.9982 64.0906C71.2281 64.0906 64.0871 71.2281 64.0871 79.9982C64.0871 88.7719 71.2281 95.9129 79.9982 95.9129C88.7719 95.9129 95.9094 88.7719 95.9094 79.9982C95.9094 71.2281 88.7719 64.0906 79.9982 64.0906ZM79.9982 64.0906C71.2281 64.0906 64.0871 71.2281 64.0871 79.9982C64.0871 88.7719 71.2281 95.9129 79.9982 95.9129C88.7719 95.9129 95.9094 88.7719 95.9094 79.9982C95.9094 71.2281 88.7719 64.0906 79.9982 64.0906ZM106.505 38.1489H53.4948C45.0337 38.1489 38.1489 45.0337 38.1489 53.4948V106.505C38.1489 114.966 45.0337 121.851 53.4948 121.851H106.505C114.966 121.851 121.851 114.966 121.851 106.505V53.4948C121.851 45.0337 114.966 38.1489 106.505 38.1489ZM79.9982 107.555C64.8068 107.555 52.4451 95.1932 52.4451 79.9982C52.4451 64.8068 64.8068 52.4451 79.9982 52.4451C95.1932 52.4451 107.555 64.8068 107.555 79.9982C107.555 95.1932 95.1932 107.555 79.9982 107.555ZM108.44 58.1432C104.845 58.1432 101.92 55.2187 101.92 51.6235C101.92 48.0284 104.845 45.1039 108.44 45.1039C112.035 45.1039 114.959 48.0284 114.959 51.6235C114.959 55.2187 112.035 58.1432 108.44 58.1432ZM79.9982 64.0906C71.2281 64.0906 64.0871 71.2281 64.0871 79.9982C64.0871 88.7719 71.2281 95.9129 79.9982 95.9129C88.7719 95.9129 95.9094 88.7719 95.9094 79.9982C95.9094 71.2281 88.7719 64.0906 79.9982 64.0906ZM79.9982 64.0906C71.2281 64.0906 64.0871 71.2281 64.0871 79.9982C64.0871 88.7719 71.2281 95.9129 79.9982 95.9129C88.7719 95.9129 95.9094 88.7719 95.9094 79.9982C95.9094 71.2281 88.7719 64.0906 79.9982 64.0906ZM79.9982 64.0906C71.2281 64.0906 64.0871 71.2281 64.0871 79.9982C64.0871 88.7719 71.2281 95.9129 79.9982 95.9129C88.7719 95.9129 95.9094 88.7719 95.9094 79.9982C95.9094 71.2281 88.7719 64.0906 79.9982 64.0906ZM106.505 38.1489H53.4948C45.0337 38.1489 38.1489 45.0337 38.1489 53.4948V106.505C38.1489 114.966 45.0337 121.851 53.4948 121.851H106.505C114.966 121.851 121.851 114.966 121.851 106.505V53.4948C121.851 45.0337 114.966 38.1489 106.505 38.1489ZM79.9982 107.555C64.8068 107.555 52.4451 95.1932 52.4451 79.9982C52.4451 64.8068 64.8068 52.4451 79.9982 52.4451C95.1932 52.4451 107.555 64.8068 107.555 79.9982C107.555 95.1932 95.1932 107.555 79.9982 107.555ZM108.44 58.1432C104.845 58.1432 101.92 55.2187 101.92 51.6235C101.92 48.0284 104.845 45.1039 108.44 45.1039C112.035 45.1039 114.959 48.0284 114.959 51.6235C114.959 55.2187 112.035 58.1432 108.44 58.1432ZM79.9982 64.0906C71.2281 64.0906 64.0871 71.2281 64.0871 79.9982C64.0871 88.7719 71.2281 95.9129 79.9982 95.9129C88.7719 95.9129 95.9094 88.7719 95.9094 79.9982C95.9094 71.2281 88.7719 64.0906 79.9982 64.0906Z" fill="#828282"/>
</g>
<defs>
<clipPath id="clip0_75_63">
<rect width="160" height="160" fill="white"/>
</clipPath>
</defs>
</svg>
