<svg width="160" height="160" viewBox="0 0 160 160" fill="none" xmlns="http://www.w3.org/2000/svg">
<g clip-path="url(#clip0_75_80)">
<path fill-rule="evenodd" clip-rule="evenodd" d="M0 0V160H160V0H0ZM124.044 57.4098C124.088 58.3849 124.11 59.3653 124.11 60.3495C124.11 90.3814 101.252 125.009 59.4511 125.009C46.6173 125.009 34.6718 121.248 24.615 114.798C26.393 115.01 28.2015 115.117 30.0364 115.117C40.6836 115.117 50.4823 111.484 58.2604 105.388C48.3158 105.205 39.9226 98.6349 37.0303 89.606C38.4186 89.8722 39.8425 90.0149 41.3067 90.0149C43.3793 90.0149 45.3873 89.7357 47.2942 89.2174C36.8985 87.129 29.0644 77.9446 29.0644 66.9342C29.0644 66.8382 29.0644 66.7429 29.0665 66.6479C32.1301 68.3499 35.6339 69.3725 39.3596 69.4906C33.2614 65.4154 29.2505 58.4591 29.2505 50.5755C29.2505 46.4102 30.3712 42.5069 32.3277 39.1497C43.5358 52.8995 60.2813 61.9464 79.1684 62.8951C78.7805 61.2311 78.5786 59.4964 78.5786 57.7157C78.5786 45.1661 88.7546 34.9911 101.304 34.9911C107.841 34.9911 113.747 37.7505 117.893 42.1669C123.068 41.1488 127.932 39.2566 132.324 36.6527C130.627 41.9597 127.024 46.4123 122.331 49.2255C126.929 48.6759 131.308 47.4539 135.384 45.6464C132.338 50.2034 128.485 54.2062 124.044 57.4098Z" fill="#828282"/>
</g>
<defs>
<clipPath id="clip0_75_80">
<rect width="160" height="160" fill="white"/>
</clipPath>
</defs>
</svg>
