<svg width="160" height="160" viewBox="0 0 160 160" fill="none" xmlns="http://www.w3.org/2000/svg">
<g clip-path="url(#clip0_75_5)">
<path fill-rule="evenodd" clip-rule="evenodd" d="M86.6462 71.8593V71.6255C86.5983 71.7039 86.5322 71.7823 86.4907 71.8593H86.6462Z" fill="#828282"/>
<path fill-rule="evenodd" clip-rule="evenodd" d="M0 0V160H160V0H0ZM49.766 132.924H26.0276V61.5054H49.766V132.924ZM37.8968 51.7577H37.74C29.7769 51.7577 24.6154 46.2716 24.6154 39.4145C24.6154 32.4069 29.9277 27.0762 38.0522 27.0762C46.1785 27.0762 51.1722 32.4069 51.3276 39.4145C51.3276 46.2716 46.1785 51.7577 37.8968 51.7577ZM135.385 132.924H111.64V94.7147C111.64 85.1179 108.209 78.567 99.6153 78.567C93.0521 78.567 89.152 82.9778 87.4338 87.2503C86.8093 88.7764 86.6462 90.8979 86.6462 93.0381V132.924H62.8969C62.8969 132.924 63.2151 68.2057 62.8969 61.5058H86.6462V71.6258C89.8015 66.7706 95.4324 59.8291 108.046 59.8291C123.672 59.8291 135.385 70.0339 135.385 91.9691V132.924Z" fill="#828282"/>
</g>
<defs>
<clipPath id="clip0_75_5">
<rect width="160" height="160" fill="white"/>
</clipPath>
</defs>
</svg>
