<svg width="20" height="20" viewBox="0 0 20 20" fill="none" xmlns="http://www.w3.org/2000/svg">
<g clip-path="url(#clip0_80_22)">
<path d="M19.5465 3.70249C19.2323 3.84184 18.9093 3.95945 18.5793 4.05494C18.97 3.613 19.268 3.093 19.4498 2.52397C19.4906 2.39642 19.4483 2.25681 19.3435 2.17339C19.2388 2.08991 19.0933 2.07991 18.978 2.14823C18.2771 2.56397 17.5208 2.86274 16.7278 3.03745C15.9291 2.25694 14.8442 1.81274 13.7226 1.81274C11.3552 1.81274 9.42912 3.73874 9.42912 6.1061C9.42912 6.29255 9.44093 6.47797 9.46428 6.66081C6.52654 6.40287 3.79538 4.95894 1.9199 2.65836C1.85306 2.57636 1.75009 2.53216 1.64467 2.54062C1.53919 2.54887 1.44441 2.60836 1.39112 2.69978C1.01074 3.35249 0.80964 4.099 0.80964 4.85855C0.80964 5.89307 1.179 6.87462 1.83145 7.64158C1.63306 7.57287 1.44054 7.487 1.2568 7.385C1.15816 7.3301 1.03777 7.33094 0.93977 7.38713C0.841705 7.44333 0.780221 7.54668 0.777641 7.65965C0.777189 7.67868 0.777189 7.69771 0.777189 7.717C0.777189 9.2612 1.60829 10.6515 2.87893 11.4092C2.76977 11.3983 2.66067 11.3825 2.55229 11.3618C2.44054 11.3404 2.32564 11.3796 2.25029 11.4648C2.1748 11.55 2.14983 11.6687 2.18461 11.7771C2.65493 13.2455 3.86583 14.3255 5.3297 14.6548C4.11558 15.4153 2.72712 15.8136 1.26958 15.8136C0.965447 15.8136 0.659576 15.7957 0.360221 15.7603C0.211511 15.7426 0.0693179 15.8304 0.0186728 15.9718C-0.0319724 16.1133 0.021705 16.2711 0.148221 16.3522C2.02067 17.5527 4.18577 18.1873 6.40932 18.1873C10.7805 18.1873 13.5151 16.126 15.0393 14.3968C16.9399 12.2406 18.03 9.38662 18.03 6.56668C18.03 6.44887 18.0282 6.32991 18.0245 6.21133C18.7744 5.64636 19.42 4.96262 19.9454 4.17674C20.0252 4.05739 20.0165 3.89965 19.9241 3.78978C19.8318 3.67984 19.6779 3.64429 19.5465 3.70249Z" fill="#828282"/>
</g>
<defs>
<clipPath id="clip0_80_22">
<rect width="20" height="20" fill="white"/>
</clipPath>
</defs>
</svg>
